<svg width="500" height="500" viewBox="0 0 500 500" fill="none" xmlns="http://www.w3.org/2000/svg">
<g clip-path="url(#clip0_231_30)">
<rect width="500" height="500" fill="white"/>
<rect width="500" height="500" fill="white"/>
<path d="M146.048 355.352C141.588 355.352 137.758 354.586 134.559 353.054C131.36 351.477 128.724 349.427 126.651 346.903C124.578 344.335 123.047 341.564 122.055 338.59C121.064 335.617 120.568 332.733 120.568 329.939V328.452C120.568 325.343 121.064 322.302 122.055 319.328C123.092 316.309 124.646 313.583 126.719 311.15C128.836 308.717 131.472 306.78 134.626 305.338C137.78 303.896 141.475 303.175 145.71 303.175C150.216 303.175 154.204 304.031 157.673 305.743C161.188 307.411 164.004 309.776 166.121 312.84C168.239 315.859 169.478 319.373 169.839 323.383H157.268C156.952 321.671 156.276 320.184 155.24 318.923C154.204 317.661 152.875 316.692 151.252 316.017C149.63 315.296 147.783 314.935 145.71 314.935C143.773 314.935 142.016 315.273 140.439 315.949C138.907 316.625 137.6 317.594 136.519 318.855C135.482 320.072 134.671 321.559 134.086 323.316C133.545 325.073 133.275 327.056 133.275 329.263C133.275 331.471 133.545 333.454 134.086 335.211C134.671 336.968 135.505 338.478 136.586 339.739C137.713 341.001 139.064 341.97 140.641 342.646C142.218 343.276 144.021 343.592 146.048 343.592C149.202 343.592 151.861 342.826 154.024 341.294C156.231 339.762 157.561 337.712 158.011 335.143H170.582C170.177 338.838 168.938 342.217 166.865 345.281C164.792 348.345 161.999 350.801 158.484 352.648C154.97 354.451 150.824 355.352 146.048 355.352Z" fill="#FF3817"/>
<path d="M176.649 354V316.692H186.381V332.913H186.246C186.246 327.686 187.327 323.586 189.49 320.612C191.698 317.639 194.852 316.152 198.952 316.152H200.439V326.695H197.6C194.852 326.695 192.712 327.439 191.18 328.926C189.693 330.412 188.949 332.553 188.949 335.346V354H176.649Z" fill="#FF3817"/>
<path d="M223.748 355.352C220.458 355.352 217.53 354.856 214.961 353.865C212.393 352.874 210.208 351.499 208.406 349.742C206.648 347.985 205.297 345.957 204.35 343.659C203.449 341.361 202.999 338.906 202.999 336.292V334.67C202.999 331.967 203.472 329.444 204.418 327.101C205.409 324.758 206.806 322.708 208.608 320.95C210.411 319.193 212.596 317.819 215.164 316.828C217.733 315.836 220.594 315.341 223.748 315.341C226.947 315.341 229.808 315.836 232.331 316.828C234.899 317.819 237.085 319.193 238.887 320.95C240.689 322.708 242.064 324.758 243.01 327.101C244.001 329.444 244.497 331.967 244.497 334.67V336.292C244.497 338.906 244.024 341.361 243.077 343.659C242.176 345.957 240.824 347.985 239.022 349.742C237.265 351.499 235.102 352.874 232.534 353.865C229.966 354.856 227.037 355.352 223.748 355.352ZM223.748 345.079C225.64 345.079 227.195 344.673 228.411 343.862C229.673 343.051 230.619 341.925 231.25 340.483C231.881 338.996 232.196 337.329 232.196 335.481C232.196 333.544 231.858 331.854 231.182 330.412C230.551 328.926 229.605 327.754 228.344 326.898C227.082 326.042 225.55 325.614 223.748 325.614C221.945 325.614 220.413 326.042 219.152 326.898C217.89 327.754 216.921 328.926 216.246 330.412C215.615 331.854 215.299 333.544 215.299 335.481C215.299 337.329 215.615 338.996 216.246 340.483C216.876 341.925 217.823 343.051 219.084 343.862C220.346 344.673 221.9 345.079 223.748 345.079Z" fill="#FF3817"/>
<path d="M251.231 354V316.692H260.963V332.778H260.423C260.423 328.903 260.896 325.704 261.842 323.181C262.833 320.612 264.275 318.697 266.168 317.436C268.06 316.129 270.38 315.476 273.129 315.476H273.67C276.463 315.476 278.784 316.129 280.631 317.436C282.523 318.697 283.943 320.612 284.889 323.181C285.88 325.704 286.376 328.903 286.376 332.778H283.537C283.537 328.903 284.01 325.704 284.956 323.181C285.948 320.612 287.39 318.697 289.282 317.436C291.174 316.129 293.495 315.476 296.243 315.476H296.784C299.578 315.476 301.921 316.129 303.813 317.436C305.751 318.697 307.215 320.612 308.206 323.181C309.242 325.704 309.761 328.903 309.761 332.778V354H297.46V332.44C297.46 330.728 296.987 329.309 296.041 328.182C295.139 327.011 293.833 326.425 292.121 326.425C290.408 326.425 289.057 327.011 288.065 328.182C287.119 329.309 286.646 330.773 286.646 332.575V354H274.345V332.44C274.345 330.728 273.872 329.309 272.926 328.182C272.025 327.011 270.718 326.425 269.006 326.425C267.294 326.425 265.942 327.011 264.951 328.182C264.005 329.309 263.532 330.773 263.532 332.575V354H251.231Z" fill="#FF3817"/>
<path d="M318.025 354V316.692H327.758V332.71H327.217C327.217 328.835 327.713 325.636 328.704 323.113C329.695 320.545 331.159 318.63 333.097 317.368C335.079 316.107 337.467 315.476 340.261 315.476H340.802C345.037 315.476 348.304 316.895 350.602 319.734C352.945 322.527 354.116 326.83 354.116 332.643V354H341.815V332.305C341.815 330.593 341.297 329.196 340.261 328.114C339.27 326.988 337.896 326.425 336.138 326.425C334.381 326.425 332.962 326.988 331.88 328.114C330.844 329.196 330.326 330.638 330.326 332.44V354H318.025Z" fill="#FF3817"/>
<path d="M364.136 354V316.692H376.437V354H364.136ZM359.405 325.614V316.692H376.437V325.614H359.405ZM369.205 313.719C366.952 313.719 365.285 313.155 364.203 312.029C363.167 310.857 362.649 309.371 362.649 307.568C362.649 305.766 363.167 304.302 364.203 303.175C365.285 302.004 366.929 301.418 369.137 301.418C371.39 301.418 373.035 302.004 374.071 303.175C375.107 304.302 375.626 305.766 375.626 307.568C375.626 309.371 375.107 310.857 374.071 312.029C373.035 313.155 371.413 313.719 369.205 313.719Z" fill="#FF3817"/>
<path d="M130.45 394.321C129.297 394.321 128.209 394.107 127.187 393.679C126.177 393.239 125.285 392.639 124.512 391.878C123.752 391.118 123.151 390.232 122.712 389.222C122.284 388.211 122.07 387.13 122.07 385.977C122.07 384.824 122.284 383.742 122.712 382.732C123.151 381.722 123.752 380.836 124.512 380.075C125.285 379.315 126.177 378.72 127.187 378.292C128.209 377.853 129.297 377.633 130.45 377.633C131.591 377.633 132.66 377.847 133.659 378.275C134.657 378.691 135.537 379.267 136.298 380.004L135.709 382.464C135.162 381.585 134.426 380.884 133.498 380.361C132.583 379.826 131.567 379.558 130.45 379.558C129.273 379.558 128.209 379.849 127.258 380.432C126.319 381.002 125.57 381.775 125.012 382.75C124.453 383.712 124.174 384.788 124.174 385.977C124.174 387.154 124.453 388.229 125.012 389.204C125.57 390.179 126.319 390.957 127.258 391.54C128.209 392.11 129.273 392.395 130.45 392.395C131.579 392.395 132.601 392.128 133.516 391.593C134.431 391.058 135.162 390.357 135.709 389.489L136.298 391.95C135.537 392.675 134.657 393.251 133.659 393.679C132.66 394.107 131.591 394.321 130.45 394.321Z" fill="#FF3817"/>
<path d="M143.643 394.214C142.609 394.214 141.664 393.964 140.808 393.465C139.953 392.966 139.269 392.294 138.758 391.45C138.259 390.606 138.009 389.673 138.009 388.651C138.009 387.617 138.259 386.684 138.758 385.852C139.269 385.008 139.953 384.337 140.808 383.837C141.664 383.338 142.609 383.088 143.643 383.088C144.689 383.088 145.634 383.338 146.478 383.837C147.334 384.337 148.011 385.008 148.511 385.852C149.022 386.684 149.277 387.617 149.277 388.651C149.277 389.673 149.022 390.606 148.511 391.45C148.011 392.294 147.334 392.966 146.478 393.465C145.634 393.964 144.689 394.214 143.643 394.214ZM143.643 392.395C144.333 392.395 144.957 392.229 145.515 391.896C146.074 391.551 146.52 391.1 146.853 390.541C147.185 389.971 147.352 389.341 147.352 388.651C147.352 387.962 147.185 387.338 146.853 386.779C146.52 386.209 146.074 385.757 145.515 385.424C144.957 385.079 144.333 384.907 143.643 384.907C142.954 384.907 142.33 385.079 141.771 385.424C141.213 385.757 140.767 386.209 140.434 386.779C140.101 387.338 139.935 387.962 139.935 388.651C139.935 389.341 140.101 389.971 140.434 390.541C140.767 391.1 141.213 391.551 141.771 391.896C142.33 392.229 142.954 392.395 143.643 392.395Z" fill="#FF3817"/>
<path d="M151.946 394V383.302H153.729V385.032C154.121 384.402 154.627 383.92 155.245 383.588C155.875 383.255 156.552 383.088 157.277 383.088C158.038 383.088 158.739 383.279 159.381 383.659C160.035 384.027 160.564 384.568 160.968 385.281C161.372 385.983 161.574 386.839 161.574 387.849V394H159.648V388.116C159.648 387.272 159.393 386.53 158.882 385.888C158.383 385.234 157.675 384.907 156.76 384.907C156.011 384.907 155.34 385.18 154.745 385.727C154.163 386.262 153.872 387.041 153.872 388.063V394H151.946Z" fill="#FF3817"/>
<path d="M165.68 394V384.907H163.256V383.302H165.734V379.737H167.552V383.302H170.209V384.907H167.606V394H165.68Z" fill="#FF3817"/>
<path d="M172.455 394V383.302H174.238V385.264C174.619 384.634 175.124 384.134 175.754 383.766C176.384 383.386 177.133 383.195 178 383.195L178.482 385.121C178.256 385.05 177.994 385.014 177.697 385.014C176.699 385.014 175.897 385.335 175.29 385.977C174.684 386.607 174.381 387.51 174.381 388.687V394H172.455Z" fill="#FF3817"/>
<path d="M185.013 394.214C183.979 394.214 183.034 393.964 182.178 393.465C181.322 392.966 180.639 392.294 180.128 391.45C179.628 390.606 179.379 389.673 179.379 388.651C179.379 387.617 179.628 386.684 180.128 385.852C180.639 385.008 181.322 384.337 182.178 383.837C183.034 383.338 183.979 383.088 185.013 383.088C186.059 383.088 187.004 383.338 187.848 383.837C188.704 384.337 189.381 385.008 189.88 385.852C190.391 386.684 190.647 387.617 190.647 388.651C190.647 389.673 190.391 390.606 189.88 391.45C189.381 392.294 188.704 392.966 187.848 393.465C187.004 393.964 186.059 394.214 185.013 394.214ZM185.013 392.395C185.702 392.395 186.326 392.229 186.885 391.896C187.444 391.551 187.889 391.1 188.222 390.541C188.555 389.971 188.721 389.341 188.721 388.651C188.721 387.962 188.555 387.338 188.222 386.779C187.889 386.209 187.444 385.757 186.885 385.424C186.326 385.079 185.702 384.907 185.013 384.907C184.323 384.907 183.699 385.079 183.141 385.424C182.582 385.757 182.136 386.209 181.804 386.779C181.471 387.338 181.304 387.962 181.304 388.651C181.304 389.341 181.471 389.971 181.804 390.541C182.136 391.1 182.582 391.551 183.141 391.896C183.699 392.229 184.323 392.395 185.013 392.395Z" fill="#FF3817"/>
<path d="M193.316 394V376.884H195.241V394H193.316Z" fill="#FF3817"/>
<path d="M203.755 394.214C202.638 394.214 201.634 393.964 200.742 393.465C199.863 392.966 199.167 392.288 198.656 391.433C198.157 390.565 197.907 389.602 197.907 388.544C197.907 387.534 198.151 386.619 198.638 385.799C199.126 384.966 199.779 384.307 200.6 383.819C201.432 383.332 202.347 383.088 203.345 383.088C204.332 383.088 205.235 383.326 206.055 383.802C206.876 384.265 207.529 384.895 208.017 385.692C208.504 386.488 208.748 387.391 208.748 388.402V389.186H201.758C201.449 389.186 201.134 389.174 200.814 389.15C200.493 389.127 200.178 389.091 199.869 389.043C199.999 389.994 200.427 390.791 201.152 391.433C201.889 392.074 202.763 392.395 203.773 392.395C204.451 392.395 205.081 392.241 205.663 391.932C206.246 391.623 206.715 391.213 207.072 390.702L207.607 392.895C207.095 393.311 206.507 393.637 205.841 393.875C205.188 394.101 204.492 394.214 203.755 394.214ZM199.815 387.742C200.457 387.635 201.105 387.581 201.758 387.581H205.307C205.568 387.581 205.824 387.593 206.073 387.617C206.335 387.629 206.596 387.647 206.858 387.671C206.691 386.839 206.275 386.155 205.61 385.62C204.944 385.073 204.189 384.8 203.345 384.8C202.478 384.8 201.717 385.091 201.063 385.674C200.409 386.244 199.993 386.934 199.815 387.742Z" fill="#FF3817"/>
<path d="M221.24 394.143C220.266 394.143 219.374 393.899 218.566 393.412C217.758 392.912 217.11 392.247 216.623 391.415C216.147 390.583 215.909 389.662 215.909 388.651C215.909 387.641 216.147 386.72 216.623 385.888C217.11 385.056 217.758 384.396 218.566 383.909C219.374 383.409 220.266 383.16 221.24 383.16C221.942 383.16 222.601 383.285 223.219 383.534C223.837 383.784 224.384 384.129 224.86 384.568V376.884H226.785V394H225.002V392.591C224.527 393.067 223.962 393.447 223.309 393.733C222.667 394.006 221.977 394.143 221.24 394.143ZM221.49 392.395C222.167 392.395 222.78 392.229 223.326 391.896C223.885 391.551 224.325 391.1 224.646 390.541C224.979 389.971 225.145 389.341 225.145 388.651C225.145 387.962 224.979 387.338 224.646 386.779C224.325 386.209 223.885 385.757 223.326 385.424C222.78 385.079 222.167 384.907 221.49 384.907C220.812 384.907 220.194 385.079 219.636 385.424C219.089 385.757 218.649 386.209 218.316 386.779C217.995 387.338 217.835 387.962 217.835 388.651C217.835 389.341 217.995 389.971 218.316 390.541C218.649 391.1 219.089 391.551 219.636 391.896C220.194 392.229 220.812 392.395 221.49 392.395Z" fill="#FF3817"/>
<path d="M235.297 394.214C234.179 394.214 233.175 393.964 232.283 393.465C231.404 392.966 230.708 392.288 230.197 391.433C229.698 390.565 229.449 389.602 229.449 388.544C229.449 387.534 229.692 386.619 230.18 385.799C230.667 384.966 231.321 384.307 232.141 383.819C232.973 383.332 233.888 383.088 234.886 383.088C235.873 383.088 236.776 383.326 237.597 383.802C238.417 384.265 239.07 384.895 239.558 385.692C240.045 386.488 240.289 387.391 240.289 388.402V389.186H233.3C232.991 389.186 232.676 389.174 232.355 389.15C232.034 389.127 231.719 389.091 231.41 389.043C231.54 389.994 231.968 390.791 232.693 391.433C233.43 392.074 234.304 392.395 235.314 392.395C235.992 392.395 236.622 392.241 237.204 391.932C237.787 391.623 238.256 391.213 238.613 390.702L239.148 392.895C238.637 393.311 238.048 393.637 237.383 393.875C236.729 394.101 236.033 394.214 235.297 394.214ZM231.356 387.742C231.998 387.635 232.646 387.581 233.3 387.581H236.848C237.109 387.581 237.365 387.593 237.614 387.617C237.876 387.629 238.137 387.647 238.399 387.671C238.232 386.839 237.816 386.155 237.151 385.62C236.485 385.073 235.73 384.8 234.886 384.8C234.019 384.8 233.258 385.091 232.604 385.674C231.951 386.244 231.535 386.934 231.356 387.742Z" fill="#FF3817"/>
<path d="M248.734 394V377.954H252.71C253.768 377.954 254.66 378.114 255.385 378.435C256.122 378.756 256.716 379.178 257.168 379.701C257.619 380.212 257.946 380.771 258.148 381.377C258.362 381.983 258.469 382.577 258.469 383.16C258.469 383.73 258.368 384.319 258.166 384.925C257.964 385.531 257.637 386.096 257.185 386.619C256.734 387.142 256.139 387.564 255.402 387.885C254.665 388.205 253.768 388.366 252.71 388.366H250.767V394H248.734ZM250.767 386.547H252.603C253.566 386.547 254.327 386.381 254.885 386.048C255.444 385.703 255.842 385.276 256.08 384.764C256.318 384.241 256.437 383.707 256.437 383.16C256.437 382.637 256.318 382.114 256.08 381.591C255.854 381.068 255.462 380.634 254.903 380.289C254.356 379.945 253.59 379.772 252.603 379.772H250.767V386.547Z" fill="#FF3817"/>
<path d="M265.22 394.214C264.186 394.214 263.241 393.964 262.385 393.465C261.529 392.966 260.846 392.294 260.334 391.45C259.835 390.606 259.586 389.673 259.586 388.651C259.586 387.617 259.835 386.684 260.334 385.852C260.846 385.008 261.529 384.337 262.385 383.837C263.241 383.338 264.186 383.088 265.22 383.088C266.266 383.088 267.211 383.338 268.055 383.837C268.91 384.337 269.588 385.008 270.087 385.852C270.598 386.684 270.854 387.617 270.854 388.651C270.854 389.673 270.598 390.606 270.087 391.45C269.588 392.294 268.91 392.966 268.055 393.465C267.211 393.964 266.266 394.214 265.22 394.214ZM265.22 392.395C265.909 392.395 266.533 392.229 267.092 391.896C267.65 391.551 268.096 391.1 268.429 390.541C268.762 389.971 268.928 389.341 268.928 388.651C268.928 387.962 268.762 387.338 268.429 386.779C268.096 386.209 267.65 385.757 267.092 385.424C266.533 385.079 265.909 384.907 265.22 384.907C264.53 384.907 263.906 385.079 263.348 385.424C262.789 385.757 262.343 386.209 262.01 386.779C261.678 387.338 261.511 387.962 261.511 388.651C261.511 389.341 261.678 389.971 262.01 390.541C262.343 391.1 262.789 391.551 263.348 391.896C263.906 392.229 264.53 392.395 265.22 392.395Z" fill="#FF3817"/>
<path d="M273.523 394V383.302H275.305V385.032C275.698 384.402 276.203 383.92 276.821 383.588C277.451 383.255 278.128 383.088 278.854 383.088C279.614 383.088 280.316 383.279 280.957 383.659C281.611 384.027 282.14 384.568 282.544 385.281C282.948 385.983 283.15 386.839 283.15 387.849V394H281.225V388.116C281.225 387.272 280.969 386.53 280.458 385.888C279.959 385.234 279.252 384.907 278.336 384.907C277.588 384.907 276.916 385.18 276.322 385.727C275.739 386.262 275.448 387.041 275.448 388.063V394H273.523Z" fill="#FF3817"/>
<path d="M287.257 394V384.907H284.832V383.302H287.31V379.737H289.129V383.302H291.785V384.907H289.182V394H287.257Z" fill="#FF3817"/>
<path d="M298.391 394.214C297.356 394.214 296.412 393.964 295.556 393.465C294.7 392.966 294.016 392.294 293.505 391.45C293.006 390.606 292.756 389.673 292.756 388.651C292.756 387.617 293.006 386.684 293.505 385.852C294.016 385.008 294.7 384.337 295.556 383.837C296.412 383.338 297.356 383.088 298.391 383.088C299.437 383.088 300.381 383.338 301.225 383.837C302.081 384.337 302.759 385.008 303.258 385.852C303.769 386.684 304.025 387.617 304.025 388.651C304.025 389.673 303.769 390.606 303.258 391.45C302.759 392.294 302.081 392.966 301.225 393.465C300.381 393.964 299.437 394.214 298.391 394.214ZM298.391 392.395C299.08 392.395 299.704 392.229 300.263 391.896C300.821 391.551 301.267 391.1 301.6 390.541C301.933 389.971 302.099 389.341 302.099 388.651C302.099 387.962 301.933 387.338 301.6 386.779C301.267 386.209 300.821 385.757 300.263 385.424C299.704 385.079 299.08 384.907 298.391 384.907C297.701 384.907 297.077 385.079 296.518 385.424C295.96 385.757 295.514 386.209 295.181 386.779C294.848 387.338 294.682 387.962 294.682 388.651C294.682 389.341 294.848 389.971 295.181 390.541C295.514 391.1 295.96 391.551 296.518 391.896C297.077 392.229 297.701 392.395 298.391 392.395Z" fill="#FF3817"/>
<path d="M312.569 394V377.954H317.828C319.279 377.954 320.538 378.191 321.608 378.667C322.69 379.142 323.581 379.772 324.283 380.557C324.984 381.341 325.507 382.209 325.852 383.16C326.196 384.099 326.369 385.038 326.369 385.977C326.369 386.916 326.196 387.861 325.852 388.812C325.507 389.751 324.984 390.612 324.283 391.397C323.581 392.181 322.69 392.811 321.608 393.287C320.538 393.762 319.279 394 317.828 394H312.569ZM314.601 392.181H317.614C318.851 392.181 319.891 391.991 320.735 391.611C321.578 391.219 322.262 390.713 322.785 390.095C323.308 389.465 323.682 388.788 323.908 388.063C324.146 387.338 324.265 386.642 324.265 385.977C324.265 385.311 324.146 384.616 323.908 383.891C323.682 383.166 323.308 382.494 322.785 381.876C322.262 381.246 321.578 380.741 320.735 380.361C319.891 379.968 318.851 379.772 317.614 379.772H314.601V392.181Z" fill="#FF3817"/>
<path d="M329.158 394V383.302H331.084V394H329.158ZM330.121 381.377C329.765 381.377 329.461 381.252 329.212 381.002C328.962 380.753 328.837 380.45 328.837 380.093C328.837 379.725 328.962 379.422 329.212 379.184C329.461 378.934 329.765 378.809 330.121 378.809C330.49 378.809 330.793 378.934 331.03 379.184C331.28 379.422 331.405 379.725 331.405 380.093C331.405 380.45 331.28 380.753 331.03 381.002C330.793 381.252 330.49 381.377 330.121 381.377Z" fill="#FF3817"/>
<path d="M338.831 399.563C338.011 399.563 337.262 399.444 336.585 399.206C335.919 398.968 335.325 398.642 334.802 398.226L335.337 396.05C335.693 396.561 336.169 396.978 336.763 397.298C337.357 397.619 338.041 397.78 338.813 397.78C340.014 397.78 340.983 397.417 341.72 396.692C342.469 395.967 342.843 395.034 342.843 393.893V392.591C342.367 393.067 341.803 393.447 341.149 393.733C340.507 394.006 339.818 394.143 339.081 394.143C338.106 394.143 337.215 393.899 336.407 393.412C335.598 392.912 334.95 392.247 334.463 391.415C333.988 390.583 333.75 389.662 333.75 388.651C333.75 387.641 333.988 386.72 334.463 385.888C334.95 385.056 335.598 384.396 336.407 383.909C337.215 383.409 338.106 383.16 339.081 383.16C339.818 383.16 340.507 383.296 341.149 383.57C341.803 383.843 342.367 384.224 342.843 384.711V383.302H344.626V394C344.626 395.165 344.352 396.163 343.806 396.995C343.271 397.827 342.564 398.463 341.684 398.903C340.804 399.343 339.854 399.563 338.831 399.563ZM339.331 392.395C340.008 392.395 340.62 392.229 341.167 391.896C341.726 391.551 342.165 391.1 342.486 390.541C342.819 389.971 342.986 389.341 342.986 388.651C342.986 387.962 342.819 387.338 342.486 386.779C342.165 386.209 341.726 385.757 341.167 385.424C340.62 385.079 340.008 384.907 339.331 384.907C338.653 384.907 338.035 385.079 337.476 385.424C336.93 385.757 336.49 386.209 336.157 386.779C335.836 387.338 335.676 387.962 335.676 388.651C335.676 389.341 335.836 389.971 336.157 390.541C336.49 391.1 336.93 391.551 337.476 391.896C338.035 392.229 338.653 392.395 339.331 392.395Z" fill="#FF3817"/>
<path d="M348.038 394V383.302H349.964V394H348.038ZM349.001 381.377C348.644 381.377 348.341 381.252 348.091 381.002C347.842 380.753 347.717 380.45 347.717 380.093C347.717 379.725 347.842 379.422 348.091 379.184C348.341 378.934 348.644 378.809 349.001 378.809C349.369 378.809 349.672 378.934 349.91 379.184C350.16 379.422 350.284 379.725 350.284 380.093C350.284 380.45 350.16 380.753 349.91 381.002C349.672 381.252 349.369 381.377 349.001 381.377Z" fill="#FF3817"/>
<path d="M354.626 394V384.907H352.202V383.302H354.68V379.737H356.499V383.302H359.155V384.907H356.552V394H354.626Z" fill="#FF3817"/>
<path d="M365.457 394.143C364.482 394.143 363.591 393.899 362.783 393.412C361.975 392.912 361.327 392.247 360.839 391.415C360.364 390.583 360.126 389.662 360.126 388.651C360.126 387.641 360.364 386.72 360.839 385.888C361.327 385.056 361.975 384.396 362.783 383.909C363.591 383.409 364.482 383.16 365.457 383.16C366.194 383.16 366.884 383.296 367.525 383.57C368.179 383.843 368.744 384.224 369.219 384.711V383.302H371.002V394H369.219V392.591C368.744 393.067 368.179 393.447 367.525 393.733C366.884 394.006 366.194 394.143 365.457 394.143ZM365.707 392.395C366.384 392.395 366.996 392.229 367.543 391.896C368.102 391.551 368.542 391.1 368.863 390.541C369.195 389.971 369.362 389.341 369.362 388.651C369.362 387.962 369.195 387.338 368.863 386.779C368.542 386.209 368.102 385.757 367.543 385.424C366.996 385.079 366.384 384.907 365.707 384.907C365.029 384.907 364.411 385.079 363.853 385.424C363.306 385.757 362.866 386.209 362.533 386.779C362.212 387.338 362.052 387.962 362.052 388.651C362.052 389.341 362.212 389.971 362.533 390.541C362.866 391.1 363.306 391.551 363.853 391.896C364.411 392.229 365.029 392.395 365.707 392.395Z" fill="#FF3817"/>
<path d="M374.414 394V376.884H376.34V394H374.414Z" fill="#FF3817"/>
<path d="M249.5 281C234.695 281 221.814 278.431 210.858 273.293C199.902 268.003 190.797 261.127 183.542 252.665C176.287 244.051 170.883 234.756 167.33 224.782C163.777 214.808 162 205.136 162 195.767V190.78C162 180.352 163.851 170.152 167.552 160.177C171.253 150.052 176.805 140.909 184.208 132.749C191.611 124.588 200.716 118.09 211.524 113.254C222.48 108.418 235.139 106 249.5 106C263.713 106 276.224 108.418 287.032 113.254C297.988 118.09 307.167 124.588 314.57 132.749C321.973 140.909 327.525 150.052 331.226 160.177C335.075 170.152 337 180.352 337 190.78V195.767C337 205.136 335.149 214.808 331.448 224.782C327.895 234.756 322.491 244.051 315.236 252.665C307.981 261.127 298.876 268.003 287.92 273.293C276.964 278.431 264.157 281 249.5 281ZM249.5 241.557C256.607 241.557 262.973 240.348 268.599 237.93C274.225 235.512 279.037 232.112 283.034 227.729C287.032 223.347 290.067 218.284 292.14 212.541C294.212 206.648 295.249 200.301 295.249 193.5C295.249 186.246 294.138 179.672 291.918 173.779C289.845 167.885 286.81 162.822 282.812 158.591C278.815 154.359 274.003 151.11 268.377 148.843C262.751 146.576 256.459 145.443 249.5 145.443C242.393 145.443 236.027 146.576 230.401 148.843C224.775 151.11 219.963 154.359 215.966 158.591C211.968 162.822 208.933 167.885 206.86 173.779C204.788 179.672 203.751 186.246 203.751 193.5C203.751 200.301 204.788 206.648 206.86 212.541C208.933 218.284 211.968 223.347 215.966 227.729C219.963 232.112 224.775 235.512 230.401 237.93C236.027 240.348 242.393 241.557 249.5 241.557Z" fill="#FF3817"/>
<path d="M248.934 131.91C248.934 129.356 252.023 128.076 253.829 129.883L309.99 186.044C311.796 187.85 310.517 190.939 307.962 190.939H251.802C250.218 190.939 248.934 189.655 248.934 188.071V131.91Z" fill="#FF3817"/>
<path d="M252.267 147.84C252.267 146.256 253.551 144.972 255.135 144.972H294.236V184.073C294.236 185.657 292.952 186.941 291.368 186.941H255.135C253.551 186.941 252.267 185.657 252.267 184.073V147.84Z" fill="white"/>
</g>
<defs>
<clipPath id="clip0_231_30">
<rect width="500" height="500" fill="white"/>
</clipPath>
</defs>
</svg>
